<svg xmlns="http://www.w3.org/2000/svg" version="1.1" xmlns:xlink="http://www.w3.org/1999/xlink" xmlns:svgjs="http://svgjs.dev/svgjs" width="128" height="128" viewBox="0 0 128 128"><g transform="matrix(0.8046875,0,0,0.8046875,12.333870967741937,12.333870967741937)"><svg viewBox="0 0 155 155" data-background-color="#ffffff" preserveAspectRatio="xMidYMid meet" height="128" width="128" xmlns="http://www.w3.org/2000/svg" xmlns:xlink="http://www.w3.org/1999/xlink"><g id="tight-bounds" transform="matrix(1,0,0,1,0.25,0.25)"><svg viewBox="0 0 154.5 154.5" height="154.5" width="154.5"><g><svg></svg></g><g><svg viewBox="0 0 154.5 154.5" height="154.5" width="154.5"><mask id="1e2dccf9-1e7f-4928-bdd4-88bee4ea2865"><rect width="250" height="250" fill="white"></rect><g transform="matrix(1,0,0,1,52.958494536989434,54.36071917808219)"><svg viewBox="0 0 48.58301092602113 45.77856164383561" height="45.77856164383561" width="48.58301092602113"><g><svg viewBox="0 0 48.58301092602113 45.77856164383561" height="45.77856164383561" width="48.58301092602113"><g><svg viewBox="0 0 48.58301092602113 45.77856164383561" height="45.77856164383561" width="48.58301092602113"><g id="SvgjsG7025"><svg viewBox="0 0 48.58301092602113 45.77856164383561" height="45.77856164383561" width="48.58301092602113" id="SvgjsSvg7024"><g><svg viewBox="0 0 48.58301092602113 45.77856164383561" height="45.77856164383561" width="48.58301092602113"><g transform="matrix(1,0,0,1,0,0)"><svg width="48.58301092602113" viewBox="-2.5 -40.0005376344086 46.9 44.2505376344086" height="45.77856164383561" data-palette-color="url(#fc8ebefb-908b-4abd-bade-c3859ca93296)"><g class="wordmark-text-0" data-fill-palette-color="primary" id="SvgjsG7023"><path d="M40.4 0.25L21.9 0.25Q12 0.25 6.75-4.33 1.5-8.9 1.5-17.9L1.5-17.9Q1.5-26.85 6.75-31.45 12-36.05 21.9-36L21.9-36 39.9-35.9 39.9-29.5 22.45-29.5Q15.95-29.5 12.8-26.75 9.65-24 9.65-17.9L9.65-17.9Q9.65-11.8 12.8-9.03 15.95-6.25 22.45-6.25L22.45-6.25 40.4-6.25 40.4 0.25Z" fill="black" stroke-width="7" stroke="black" stroke-linejoin="round"></path></g></svg></g></svg></g></svg></g></svg></g></svg></g></svg></g></mask><g transform="matrix(1,0,0,1,52.958494536989434,54.36071917808219)"><svg viewBox="0 0 48.58301092602113 45.77856164383561" height="45.77856164383561" width="48.58301092602113"><g><svg viewBox="0 0 48.58301092602113 45.77856164383561" height="45.77856164383561" width="48.58301092602113"><g><svg viewBox="0 0 48.58301092602113 45.77856164383561" height="45.77856164383561" width="48.58301092602113"><g id="textblocktransform"><svg viewBox="0 0 48.58301092602113 45.77856164383561" height="45.77856164383561" width="48.58301092602113" id="textblock"><g><svg viewBox="0 0 48.58301092602113 45.77856164383561" height="45.77856164383561" width="48.58301092602113"><g transform="matrix(1,0,0,1,0,0)"><svg width="48.58301092602113" viewBox="-2.5 -40.0005376344086 46.9 44.2505376344086" height="45.77856164383561" data-palette-color="url(#fc8ebefb-908b-4abd-bade-c3859ca93296)"><g class="wordmark-text-0" data-fill-palette-color="primary" id="text-0"></g></svg></g></svg></g></svg></g></svg></g></svg></g></svg></g><g mask="url(#1e2dccf9-1e7f-4928-bdd4-88bee4ea2865)"><g transform="matrix(1.5249813440534807, 0, 0, 1.5249813440534807, 1, 5.385254161479722)"><svg xmlns="http://www.w3.org/2000/svg" viewBox="9.99877664427883 12.879999999999999 100.00122335572117 94.25" x="0" y="0" height="94.25" width="100.00122335572117" class="icon-none" data-fill-palette-color="accent" id="none"></svg></g></g></svg></g><defs></defs><mask id="061c0eb8-8fb9-4b1d-989c-89b919428dab"><g id="SvgjsG7035"><svg viewBox="0 0 154.5 154.5" height="154.5" width="154.5"><g><svg></svg></g><g><svg viewBox="0 0 154.5 154.5" height="154.5" width="154.5"><mask id="SvgjsMask7034"><rect width="250" height="250" fill="black"></rect><g transform="matrix(1,0,0,1,52.958494536989434,54.36071917808219)"><svg viewBox="0 0 48.58301092602113 45.77856164383561" height="45.77856164383561" width="48.58301092602113"><g><svg viewBox="0 0 48.58301092602113 45.77856164383561" height="45.77856164383561" width="48.58301092602113"><g><svg viewBox="0 0 48.58301092602113 45.77856164383561" height="45.77856164383561" width="48.58301092602113"><g id="SvgjsG7033"><svg viewBox="0 0 48.58301092602113 45.77856164383561" height="45.77856164383561" width="48.58301092602113" id="SvgjsSvg7032"><g><svg viewBox="0 0 48.58301092602113 45.77856164383561" height="45.77856164383561" width="48.58301092602113"><g transform="matrix(1,0,0,1,0,0)"><svg width="48.58301092602113" viewBox="-2.5 -40.0005376344086 46.9 44.2505376344086" height="45.77856164383561" data-palette-color="url(#fc8ebefb-908b-4abd-bade-c3859ca93296)"><g class="wordmark-text-0" data-fill-palette-color="primary" id="SvgjsG7031"><path d="M40.4 0.25L21.9 0.25Q12 0.25 6.75-4.33 1.5-8.9 1.5-17.9L1.5-17.9Q1.5-26.85 6.75-31.45 12-36.05 21.9-36L21.9-36 39.9-35.9 39.9-29.5 22.45-29.5Q15.95-29.5 12.8-26.75 9.65-24 9.65-17.9L9.65-17.9Q9.65-11.8 12.8-9.03 15.95-6.25 22.45-6.25L22.45-6.25 40.4-6.25 40.4 0.25Z" fill="black" stroke-width="7" stroke="black" stroke-linejoin="round"></path></g></svg></g></svg></g></svg></g></svg></g></svg></g></svg></g></mask><g transform="matrix(1,0,0,1,52.958494536989434,54.36071917808219)"><svg viewBox="0 0 48.58301092602113 45.77856164383561" height="45.77856164383561" width="48.58301092602113"><g><svg viewBox="0 0 48.58301092602113 45.77856164383561" height="45.77856164383561" width="48.58301092602113"><g><svg viewBox="0 0 48.58301092602113 45.77856164383561" height="45.77856164383561" width="48.58301092602113"><g id="SvgjsG7030"><svg viewBox="0 0 48.58301092602113 45.77856164383561" height="45.77856164383561" width="48.58301092602113" id="SvgjsSvg7029"><g><svg viewBox="0 0 48.58301092602113 45.77856164383561" height="45.77856164383561" width="48.58301092602113"><g transform="matrix(1,0,0,1,0,0)"><svg width="48.58301092602113" viewBox="-2.5 -40.0005376344086 46.9 44.2505376344086" height="45.77856164383561" data-palette-color="url(#fc8ebefb-908b-4abd-bade-c3859ca93296)"><g class="wordmark-text-0" data-fill-palette-color="primary" id="SvgjsG7028"><path d="M40.4 0.25L21.9 0.25Q12 0.25 6.75-4.33 1.5-8.9 1.5-17.9L1.5-17.9Q1.5-26.85 6.75-31.45 12-36.05 21.9-36L21.9-36 39.9-35.9 39.9-29.5 22.45-29.5Q15.95-29.5 12.8-26.75 9.65-24 9.65-17.9L9.65-17.9Q9.65-11.8 12.8-9.03 15.95-6.25 22.45-6.25L22.45-6.25 40.4-6.25 40.4 0.25Z" fill="white"></path></g></svg></g></svg></g></svg></g></svg></g></svg></g></svg></g><g mask="url(#1e2dccf9-1e7f-4928-bdd4-88bee4ea2865)"><g transform="matrix(1.5249813440534807, 0, 0, 1.5249813440534807, 1, 5.385254161479722)"><svg xmlns="http://www.w3.org/2000/svg" viewBox="9.99877664427883 12.879999999999999 100.00122335572117 94.25" x="0" y="0" height="94.25" width="100.00122335572117" class="icon-none" data-fill-palette-color="accent" id="SvgjsSvg7027"><path d="M49.73 54.22L45 52 40.72 61.3A0.89 0.89 0 0 1 39.91 61.82H35.45A2.68 2.68 0 0 0 35.45 67.18H41.5A3.57 3.57 0 0 0 44.75 65.1L46.26 61.82Z" fill="black"></path><circle cx="67.5" cy="18.38" r="5.5" fill="black"></circle><path d="M40.85 38.9L44.03 31.9A0.89 0.89 0 0 1 44.84 31.38H53.16A0.9 0.9 0 0 1 54 32.67L48.84 43.89 48 45.71A3.62 3.62 0 0 0 49.68 50.46L54.58 52.86 65 58A0.9 0.9 0 0 1 65.5 58.81V74.55A2.68 2.68 0 0 0 68.16 77.25 2.68 2.68 0 0 0 70.82 74.55V56.45A2.86 2.86 0 0 0 69.22 53.87L57.68 48.21A0.9 0.9 0 0 1 57.26 47L62.17 36.26A0.88 0.88 0 0 1 63.6 36L67 39.42A3.53 3.53 0 0 0 69.51 40.47H74.18A2.73 2.73 0 0 0 76.92 37.9 2.68 2.68 0 0 0 74.26 35.07H70.55A0.88 0.88 0 0 1 69.93 34.81L64.93 29.81A0.9 0.9 0 0 0 64.68 29.64L57.18 26.07A0.9 0.9 0 0 0 56.8 25.98H41.57A1 1 0 0 0 40.68 26.56L35.68 37.56C35.12 38.79 39.09 41.25 40.85 38.9" fill="black"></path><path d="M29.64 43.73A2.53 2.53 0 0 1 30.2 46.45L32.06 48.31A5.05 5.05 0 0 0 25.06 41.31L26.92 43.17A2.53 2.53 0 0 1 29.64 43.73" fill="black"></path><rect x="14.92" y="40.77" width="15.15" height="20.2" transform="translate(-29.38 30.81) rotate(-45)" fill="black"></rect><polygon points="100 49.63 100 67.13 80 67.13 80 82.13 62.5 82.13 62.5 99.63 45 99.63 45 107.13 62.5 107.13 80 107.13 92.5 107.13 110 107.13 110 67.13 110 49.63 100 49.63" fill="black"></polygon></svg></g></g></svg></g><defs><mask></mask></defs></svg><rect width="154.5" height="154.5" fill="black" stroke="none" visibility="hidden"></rect></g></mask><linearGradient x1="0.054" x2="0.941" y1="0.5" y2="0.5" id="fc8ebefb-908b-4abd-bade-c3859ca93296"><stop stop-color="#0f3054" offset="0"></stop><stop stop-color="#3b8dcb" offset="0.498"></stop><stop stop-color="#0f3054" offset="1"></stop></linearGradient><rect width="154.5" height="154.5" fill="url(#fc8ebefb-908b-4abd-bade-c3859ca93296)" mask="url(#061c0eb8-8fb9-4b1d-989c-89b919428dab)" data-fill-palette-color="primary"></rect><mask id="54a09ab0-ba8a-4918-bcef-52239b9dc106"><g id="SvgjsG7053"><svg viewBox="0 0 154.5 154.5" height="154.5" width="154.5"><g><svg></svg></g><g><svg viewBox="0 0 154.5 154.5" height="154.5" width="154.5"><mask id="SvgjsMask7052"><rect width="250" height="250" fill="black"></rect><g transform="matrix(1,0,0,1,52.958494536989434,54.36071917808219)"><svg viewBox="0 0 48.58301092602113 45.77856164383561" height="45.77856164383561" width="48.58301092602113"><g><svg viewBox="0 0 48.58301092602113 45.77856164383561" height="45.77856164383561" width="48.58301092602113"><g><svg viewBox="0 0 48.58301092602113 45.77856164383561" height="45.77856164383561" width="48.58301092602113"><g id="SvgjsG7051"><svg viewBox="0 0 48.58301092602113 45.77856164383561" height="45.77856164383561" width="48.58301092602113" id="SvgjsSvg7050"><g><svg viewBox="0 0 48.58301092602113 45.77856164383561" height="45.77856164383561" width="48.58301092602113"><g transform="matrix(1,0,0,1,0,0)"><svg width="48.58301092602113" viewBox="-2.5 -40.0005376344086 46.9 44.2505376344086" height="45.77856164383561" data-palette-color="url(#fc8ebefb-908b-4abd-bade-c3859ca93296)"><g class="wordmark-text-0" data-fill-palette-color="primary" id="SvgjsG7049"><path d="M40.4 0.25L21.9 0.25Q12 0.25 6.75-4.33 1.5-8.9 1.5-17.9L1.5-17.9Q1.5-26.85 6.75-31.45 12-36.05 21.9-36L21.9-36 39.9-35.9 39.9-29.5 22.45-29.5Q15.95-29.5 12.8-26.75 9.65-24 9.65-17.9L9.65-17.9Q9.65-11.8 12.8-9.03 15.95-6.25 22.45-6.25L22.45-6.25 40.4-6.25 40.4 0.25Z" fill="black" stroke-width="7" stroke="black" stroke-linejoin="round"></path></g></svg></g></svg></g></svg></g></svg></g></svg></g></svg></g></mask><g transform="matrix(1,0,0,1,52.958494536989434,54.36071917808219)"><svg viewBox="0 0 48.58301092602113 45.77856164383561" height="45.77856164383561" width="48.58301092602113"><g><svg viewBox="0 0 48.58301092602113 45.77856164383561" height="45.77856164383561" width="48.58301092602113"><g><svg viewBox="0 0 48.58301092602113 45.77856164383561" height="45.77856164383561" width="48.58301092602113"><g id="SvgjsG7048"><svg viewBox="0 0 48.58301092602113 45.77856164383561" height="45.77856164383561" width="48.58301092602113" id="SvgjsSvg7047"><g><svg viewBox="0 0 48.58301092602113 45.77856164383561" height="45.77856164383561" width="48.58301092602113"><g transform="matrix(1,0,0,1,0,0)"><svg width="48.58301092602113" viewBox="-2.5 -40.0005376344086 46.9 44.2505376344086" height="45.77856164383561" data-palette-color="url(#fc8ebefb-908b-4abd-bade-c3859ca93296)"><g class="wordmark-text-0" data-fill-palette-color="primary" id="SvgjsG7046"></g></svg></g></svg></g></svg></g></svg></g></svg></g></svg></g><g mask="url(#1e2dccf9-1e7f-4928-bdd4-88bee4ea2865)"><g transform="matrix(1.5249813440534807, 0, 0, 1.5249813440534807, 1, 5.385254161479722)"><svg xmlns="http://www.w3.org/2000/svg" viewBox="9.99877664427883 12.879999999999999 100.00122335572117 94.25" x="0" y="0" height="94.25" width="100.00122335572117" class="icon-none" data-fill-palette-color="accent" id="SvgjsSvg7045"><path d="M49.73 54.22L45 52 40.72 61.3A0.89 0.89 0 0 1 39.91 61.82H35.45A2.68 2.68 0 0 0 35.45 67.18H41.5A3.57 3.57 0 0 0 44.75 65.1L46.26 61.82Z" fill="white"></path><circle cx="67.5" cy="18.38" r="5.5" fill="white"></circle><path d="M40.85 38.9L44.03 31.9A0.89 0.89 0 0 1 44.84 31.38H53.16A0.9 0.9 0 0 1 54 32.67L48.84 43.89 48 45.71A3.62 3.62 0 0 0 49.68 50.46L54.58 52.86 65 58A0.9 0.9 0 0 1 65.5 58.81V74.55A2.68 2.68 0 0 0 68.16 77.25 2.68 2.68 0 0 0 70.82 74.55V56.45A2.86 2.86 0 0 0 69.22 53.87L57.68 48.21A0.9 0.9 0 0 1 57.26 47L62.17 36.26A0.88 0.88 0 0 1 63.6 36L67 39.42A3.53 3.53 0 0 0 69.51 40.47H74.18A2.73 2.73 0 0 0 76.92 37.9 2.68 2.68 0 0 0 74.26 35.07H70.55A0.88 0.88 0 0 1 69.93 34.81L64.93 29.81A0.9 0.9 0 0 0 64.68 29.64L57.18 26.07A0.9 0.9 0 0 0 56.8 25.98H41.57A1 1 0 0 0 40.68 26.56L35.68 37.56C35.12 38.79 39.09 41.25 40.85 38.9" fill="white"></path><path d="M29.64 43.73A2.53 2.53 0 0 1 30.2 46.45L32.06 48.31A5.05 5.05 0 0 0 25.06 41.31L26.92 43.17A2.53 2.53 0 0 1 29.64 43.73" fill="white"></path><rect x="14.92" y="40.77" width="15.15" height="20.2" transform="translate(-29.38 30.81) rotate(-45)" fill="white"></rect><polygon points="100 49.63 100 67.13 80 67.13 80 82.13 62.5 82.13 62.5 99.63 45 99.63 45 107.13 62.5 107.13 80 107.13 92.5 107.13 110 107.13 110 67.13 110 49.63 100 49.63" fill="white"></polygon></svg></g></g></svg></g><defs><mask></mask></defs><mask><g id="SvgjsG7044"><svg viewBox="0 0 154.5 154.5" height="154.5" width="154.5"><g><svg></svg></g><g><svg viewBox="0 0 154.5 154.5" height="154.5" width="154.5"><mask id="SvgjsMask7043"><rect width="250" height="250" fill="black"></rect><g transform="matrix(1,0,0,1,52.958494536989434,54.36071917808219)"><svg viewBox="0 0 48.58301092602113 45.77856164383561" height="45.77856164383561" width="48.58301092602113"><g><svg viewBox="0 0 48.58301092602113 45.77856164383561" height="45.77856164383561" width="48.58301092602113"><g><svg viewBox="0 0 48.58301092602113 45.77856164383561" height="45.77856164383561" width="48.58301092602113"><g id="SvgjsG7042"><svg viewBox="0 0 48.58301092602113 45.77856164383561" height="45.77856164383561" width="48.58301092602113" id="SvgjsSvg7041"><g><svg viewBox="0 0 48.58301092602113 45.77856164383561" height="45.77856164383561" width="48.58301092602113"><g transform="matrix(1,0,0,1,0,0)"><svg width="48.58301092602113" viewBox="-2.5 -40.0005376344086 46.9 44.2505376344086" height="45.77856164383561" data-palette-color="url(#fc8ebefb-908b-4abd-bade-c3859ca93296)"><g class="wordmark-text-0" data-fill-palette-color="primary" id="SvgjsG7040"><path d="M40.4 0.25L21.9 0.25Q12 0.25 6.75-4.33 1.5-8.9 1.5-17.9L1.5-17.9Q1.5-26.85 6.75-31.45 12-36.05 21.9-36L21.9-36 39.9-35.9 39.9-29.5 22.45-29.5Q15.95-29.5 12.8-26.75 9.65-24 9.65-17.9L9.65-17.9Q9.65-11.8 12.8-9.03 15.95-6.25 22.45-6.25L22.45-6.25 40.4-6.25 40.4 0.25Z" fill="black" stroke-width="7" stroke="black" stroke-linejoin="round"></path></g></svg></g></svg></g></svg></g></svg></g></svg></g></svg></g></mask><g transform="matrix(1,0,0,1,52.958494536989434,54.36071917808219)"><svg viewBox="0 0 48.58301092602113 45.77856164383561" height="45.77856164383561" width="48.58301092602113"><g><svg viewBox="0 0 48.58301092602113 45.77856164383561" height="45.77856164383561" width="48.58301092602113"><g><svg viewBox="0 0 48.58301092602113 45.77856164383561" height="45.77856164383561" width="48.58301092602113"><g id="SvgjsG7039"><svg viewBox="0 0 48.58301092602113 45.77856164383561" height="45.77856164383561" width="48.58301092602113" id="SvgjsSvg7038"><g><svg viewBox="0 0 48.58301092602113 45.77856164383561" height="45.77856164383561" width="48.58301092602113"><g transform="matrix(1,0,0,1,0,0)"><svg width="48.58301092602113" viewBox="-2.5 -40.0005376344086 46.9 44.2505376344086" height="45.77856164383561" data-palette-color="url(#fc8ebefb-908b-4abd-bade-c3859ca93296)"><g class="wordmark-text-0" data-fill-palette-color="primary" id="SvgjsG7037"><path d="M40.4 0.25L21.9 0.25Q12 0.25 6.75-4.33 1.5-8.9 1.5-17.9L1.5-17.9Q1.5-26.85 6.75-31.45 12-36.05 21.9-36L21.9-36 39.9-35.9 39.9-29.5 22.45-29.5Q15.95-29.5 12.8-26.75 9.65-24 9.65-17.9L9.65-17.9Q9.65-11.8 12.8-9.03 15.95-6.25 22.45-6.25L22.45-6.25 40.4-6.25 40.4 0.25Z" fill="black"></path></g></svg></g></svg></g></svg></g></svg></g></svg></g></svg></g><g mask="url(#1e2dccf9-1e7f-4928-bdd4-88bee4ea2865)"><g transform="matrix(1.5249813440534807, 0, 0, 1.5249813440534807, 1, 5.385254161479722)"><svg xmlns="http://www.w3.org/2000/svg" viewBox="9.99877664427883 12.879999999999999 100.00122335572117 94.25" x="0" y="0" height="94.25" width="100.00122335572117" class="icon-none" data-fill-palette-color="accent" id="SvgjsSvg7036"><path d="M49.73 54.22L45 52 40.72 61.3A0.89 0.89 0 0 1 39.91 61.82H35.45A2.68 2.68 0 0 0 35.45 67.18H41.5A3.57 3.57 0 0 0 44.75 65.1L46.26 61.82Z" fill="black"></path><circle cx="67.5" cy="18.38" r="5.5" fill="black"></circle><path d="M40.85 38.9L44.03 31.9A0.89 0.89 0 0 1 44.84 31.38H53.16A0.9 0.9 0 0 1 54 32.67L48.84 43.89 48 45.71A3.62 3.62 0 0 0 49.68 50.46L54.58 52.86 65 58A0.9 0.9 0 0 1 65.5 58.81V74.55A2.68 2.68 0 0 0 68.16 77.25 2.68 2.68 0 0 0 70.82 74.55V56.45A2.86 2.86 0 0 0 69.22 53.87L57.68 48.21A0.9 0.9 0 0 1 57.26 47L62.17 36.26A0.88 0.88 0 0 1 63.6 36L67 39.42A3.53 3.53 0 0 0 69.51 40.47H74.18A2.73 2.73 0 0 0 76.92 37.9 2.68 2.68 0 0 0 74.26 35.07H70.55A0.88 0.88 0 0 1 69.93 34.81L64.93 29.81A0.9 0.9 0 0 0 64.68 29.64L57.18 26.07A0.9 0.9 0 0 0 56.8 25.98H41.57A1 1 0 0 0 40.68 26.56L35.68 37.56C35.12 38.79 39.09 41.25 40.85 38.9" fill="black"></path><path d="M29.64 43.73A2.53 2.53 0 0 1 30.2 46.45L32.06 48.31A5.05 5.05 0 0 0 25.06 41.31L26.92 43.17A2.53 2.53 0 0 1 29.64 43.73" fill="black"></path><rect x="14.92" y="40.77" width="15.15" height="20.2" transform="translate(-29.38 30.81) rotate(-45)" fill="black"></rect><polygon points="100 49.63 100 67.13 80 67.13 80 82.13 62.5 82.13 62.5 99.63 45 99.63 45 107.13 62.5 107.13 80 107.13 92.5 107.13 110 107.13 110 67.13 110 49.63 100 49.63" fill="black"></polygon></svg></g></g></svg></g><defs><mask></mask></defs></svg><rect width="154.5" height="154.5" fill="black" stroke="none" visibility="hidden"></rect></g></mask></svg><rect width="154.5" height="154.5" fill="black" stroke="none" visibility="hidden"></rect></g></mask><linearGradient x1="0.054" x2="0.941" y1="0.5" y2="0.5" id="39bdecc8-859b-423d-a890-eb0b83a66cf8"><stop stop-color="#0f3054" offset="0"></stop><stop stop-color="#3b8dcb" offset="0.498"></stop><stop stop-color="#0f3054" offset="1"></stop></linearGradient><rect width="154.5" height="154.5" fill="url(#39bdecc8-859b-423d-a890-eb0b83a66cf8)" mask="url(#54a09ab0-ba8a-4918-bcef-52239b9dc106)" data-fill-palette-color="accent"></rect></svg><rect width="154.5" height="154.5" fill="none" stroke="none" visibility="hidden"></rect></g></svg></g></svg>